<svg height="433pt" viewBox="-58 0 433 433.9" width="433pt" xmlns="http://www.w3.org/2000/svg"><path d="m309.550781 112.101562h-64.699219v-28.300781c0-46.28125-37.519531-83.800781-83.800781-83.800781s-83.800781 37.519531-83.800781 83.800781v28.300781h-69.800781c-1.859375-.011718-3.644531.71875-4.960938 2.035157-1.316406 1.316406-2.050781 3.101562-2.039062 4.964843v267.796876c.042969 25.941406 21.058593 46.960937 47 47h222.199219c25.941406-.039063 46.960937-21.058594 47-47v-267.796876c-.058594-3.882812-3.21875-7-7.097657-7zm-78.699219 0h-139.703124v-28.300781c0-38.550781 31.253906-69.800781 69.800781-69.800781 38.550781 0 69.800781 31.25 69.800781 69.800781v28.300781zm0 0"/></svg>