<svg width="296" height="95" viewBox="0 0 296 95" fill="none" xmlns="http://www.w3.org/2000/svg">
<path d="M22.23 94.9C27.21 94.9 31.33 93.64 34.59 91.12C37.87 88.6 40.15 85.21 41.43 80.95L35.07 79.24C34.21 82.26 32.71 84.63 30.57 86.35C28.43 88.07 25.65 88.93 22.23 88.93C19.17 88.93 16.61 88.24 14.55 86.86C12.51 85.48 10.97 83.55 9.93 81.07C8.91 78.59 8.41 75.7 8.43 72.4C8.45 69.1 8.97 66.21 9.99 63.73C11.01 61.25 12.54 59.32 14.58 57.94C16.62 56.56 19.17 55.87 22.23 55.87C25.65 55.87 28.43 56.73 30.57 58.45C32.71 60.17 34.21 62.54 35.07 65.56L41.43 63.85C40.15 59.59 37.87 56.2 34.59 53.68C31.33 51.16 27.21 49.9 22.23 49.9C17.91 49.9 14.23 50.85 11.19 52.75C8.15 54.65 5.82 57.29 4.2 60.67C2.6 64.03 1.8 67.94 1.8 72.4C1.8 76.86 2.6 80.78 4.2 84.16C5.82 87.52 8.15 90.15 11.19 92.05C14.23 93.95 17.91 94.9 22.23 94.9ZM65.0981 94.9C68.3181 94.9 71.1181 94.18 73.4981 92.74C75.8781 91.28 77.7181 89.27 79.0181 86.71C80.3381 84.13 80.9981 81.15 80.9981 77.77C80.9981 74.43 80.3481 71.48 79.0481 68.92C77.7481 66.34 75.9081 64.33 73.5281 62.89C71.1481 61.43 68.3381 60.7 65.0981 60.7C61.9181 60.7 59.1381 61.42 56.7581 62.86C54.3781 64.3 52.5281 66.3 51.2081 68.86C49.8881 71.42 49.2281 74.39 49.2281 77.77C49.2281 81.11 49.8781 84.07 51.1781 86.65C52.4781 89.23 54.3081 91.25 56.6681 92.71C59.0481 94.17 61.8581 94.9 65.0981 94.9ZM65.0981 88.99C62.0781 88.99 59.7881 87.98 58.2281 85.96C56.6681 83.92 55.8881 81.19 55.8881 77.77C55.8881 74.47 56.6381 71.79 58.1381 69.73C59.6381 67.65 61.9581 66.61 65.0981 66.61C68.1581 66.61 70.4581 67.62 71.9981 69.64C73.5581 71.66 74.3381 74.37 74.3381 77.77C74.3381 81.09 73.5681 83.79 72.0281 85.87C70.5081 87.95 68.1981 88.99 65.0981 88.99ZM91.1906 94H97.4606V49.9H91.1906V94ZM110.07 94H116.34V49.9H110.07V94ZM128.948 56.29H135.218V50.2H128.948V56.29ZM128.948 94H135.218V61.6H128.948V94ZM147.197 94H152.777V91.03C153.957 92.25 155.347 93.2 156.947 93.88C158.567 94.56 160.397 94.9 162.437 94.9C165.457 94.9 168.057 94.15 170.237 92.65C172.437 91.13 174.127 89.08 175.307 86.5C176.507 83.92 177.107 81.01 177.107 77.77C177.107 74.51 176.507 71.6 175.307 69.04C174.107 66.46 172.397 64.43 170.177 62.95C167.977 61.45 165.357 60.7 162.317 60.7C160.517 60.7 158.877 60.97 157.397 61.51C155.917 62.05 154.617 62.82 153.497 63.82V50.8H147.197V94ZM161.567 89.23C158.487 89.23 156.247 88.16 154.847 86.02C153.467 83.88 152.777 81.13 152.777 77.77C152.777 74.41 153.467 71.67 154.847 69.55C156.227 67.43 158.397 66.37 161.357 66.37C163.437 66.37 165.147 66.88 166.487 67.9C167.827 68.92 168.817 70.29 169.457 72.01C170.117 73.73 170.447 75.65 170.447 77.77C170.447 79.91 170.127 81.85 169.487 83.59C168.847 85.31 167.867 86.68 166.547 87.7C165.247 88.72 163.587 89.23 161.567 89.23ZM186.731 94H193.061V77.65C193.061 75.75 193.361 73.99 193.961 72.37C194.561 70.75 195.621 69.45 197.141 68.47C198.221 67.77 199.411 67.36 200.711 67.24C202.011 67.12 203.181 67.2 204.221 67.48V61.6C202.761 61.32 201.211 61.33 199.571 61.63C197.951 61.93 196.531 62.53 195.311 63.43C194.111 64.23 193.111 65.34 192.311 66.76V61.6H186.731V94ZM213.534 56.29H219.804V50.2H213.534V56.29ZM213.534 94H219.804V61.6H213.534V94Z" fill="white"/>
<path fill-rule="evenodd" clip-rule="evenodd" d="M274.968 3.64685C271.028 7.49386 268.127 10.5916 267.041 12.1109C266.167 13.3326 265.315 15.0452 264.422 17.369C263.978 18.5268 263.231 20.1541 262.763 20.9851C262.283 21.8367 261.705 23.239 261.437 24.1995C260.455 27.7241 257.577 34.1241 256.794 34.5264C256.541 34.6562 255.481 34.5009 252.906 33.957C248.731 33.0756 246.966 32.9794 245.785 33.5692C244.605 34.1581 243.487 35.1764 242.381 36.6704C241.822 37.4263 241.214 38.2221 241.03 38.4383C240.847 38.6545 237.729 40.3726 234.102 42.2562C225.625 46.6585 224.933 47.0262 225.004 47.0944C225.037 47.1257 228.702 45.889 233.15 44.3461C237.95 42.6815 241.395 41.5789 241.626 41.6339C241.841 41.6847 242.991 42.057 244.183 42.4611C245.375 42.8652 246.599 43.1962 246.903 43.1969C248.152 43.1995 250.104 44.5449 252.096 46.7747C253.536 48.3875 255.647 49.7656 259.428 51.5614C262.103 52.8321 262.164 52.8509 263.667 52.861C264.506 52.8666 265.435 52.8062 265.733 52.7269L266.273 52.5824L265.519 53.9021C264.578 55.5503 263.672 57.1498 263.087 58.1964C262.84 58.6394 262.687 59.1251 262.747 59.2759C262.808 59.4266 262.796 59.4912 262.721 59.4194C262.646 59.3475 262.393 59.5971 262.159 59.9743C261.85 60.4703 261.696 61.0886 261.602 62.2102C261.528 63.0751 261.545 63.8043 261.638 63.8598C261.73 63.9144 262.165 63.7242 262.604 63.4369C263.496 62.8533 263.572 62.982 263.021 64.146C262.526 65.1944 262.551 65.8252 263.111 66.4052C263.877 67.1988 264.172 66.9928 264.617 65.3542C264.925 64.2204 265.024 64.0401 265.23 64.2375C265.302 64.3071 265.249 64.7478 265.113 65.217C264.583 67.0313 264.542 67.4897 264.831 68.3493C265.152 69.3059 265.876 70.0564 266.32 69.8932C266.484 69.8328 266.773 69.4359 266.964 69.0115L267.309 68.2397L267.313 69.1618C267.317 70.2734 267.589 70.8189 268.214 70.9695C269.201 71.2073 270.176 70.0222 270.194 68.5619L270.203 67.8781L270.745 69.0023C271.336 70.2271 272.183 70.906 273.012 70.82C273.405 70.7791 273.502 70.6504 273.598 70.0477C273.661 69.65 273.724 69.4241 273.739 69.5458C273.754 69.6677 274.016 69.8915 274.322 70.0434L274.879 70.3197L275.008 69.6605C275.14 68.9833 275.073 67.5895 274.693 63.1771C274.574 61.7849 274.481 60.5238 274.488 60.3746C274.495 60.2254 274.585 59.1677 274.688 58.0241C274.942 55.1927 274.941 51.3759 274.686 50.2131C274.417 48.9882 272.638 44.7864 271.627 42.989L270.849 41.6048L271.224 41.2041C271.43 40.9839 272.087 40.4848 272.683 40.0952C274.208 39.0986 274.416 38.7287 274.421 37.0047C274.426 35.4338 274.357 35.542 276.237 34.131C276.806 33.7039 276.849 33.6113 276.639 33.2745C276.311 32.7491 276.345 32.0788 276.715 31.7841C276.886 31.6478 278.048 31.0478 279.296 30.4512C281.725 29.2904 282.201 28.8827 281.615 28.4649C281.295 28.2367 281.376 28.1488 282.652 27.3404C283.94 26.5241 284.042 26.4114 284.141 25.7043C284.228 25.0812 284.467 24.7245 285.469 23.7201C286.8 22.386 288.933 19.8798 291.09 17.1162C292.181 15.7187 292.706 15.2159 293.621 14.6927C295.282 13.7429 296 13.203 296 12.9038C296 12.5434 295.641 12.5749 294.564 13.0294C293.056 13.6657 291.748 14.5509 291.309 15.2333C291.043 15.6466 290.112 16.3754 288.69 17.2838C287.477 18.0589 285.128 19.7035 283.47 20.9384C281.812 22.1735 280.347 23.2645 280.215 23.3629C279.755 23.7055 279.76 23.326 280.228 22.3447C280.85 21.0408 280.982 20.4011 280.75 19.8151C280.594 19.4218 280.612 19.3316 280.846 19.3316C281.298 19.3316 281.69 18.1701 281.815 16.4655C281.897 15.3463 282.03 14.7699 282.285 14.4375C282.71 13.8852 282.894 12.3375 282.672 11.1953C282.535 10.4898 282.573 10.2976 282.962 9.74888C283.329 9.22996 283.389 8.97195 283.297 8.31581C283.236 7.87573 283.021 7.24833 282.82 6.92161C282.567 6.50937 282.486 6.1389 282.559 5.71166C282.672 5.04412 282.187 3.81898 281.746 3.65643C281.589 3.59857 281.535 3.40837 281.602 3.15108C281.794 2.41809 280.421 1.82866 279.809 2.38103C279.603 2.56635 279.578 2.52585 279.668 2.15502C279.807 1.58403 279.529 0.375523 279.183 0.0430207C278.957 -0.173947 278.354 0.341352 274.968 3.64685ZM267.916 66.748C267.911 66.8724 267.783 67.2181 267.631 67.5165C267.388 67.9952 267.366 68.0059 267.449 67.6069C267.5 67.3583 267.544 67.0124 267.545 66.8384C267.547 66.6645 267.633 66.522 267.736 66.522C267.84 66.522 267.921 66.6238 267.916 66.748Z" fill="white"/>
</svg>
