<svg width="177" height="57" viewBox="0 0 177 57" fill="none" xmlns="http://www.w3.org/2000/svg">
<path d="M13.338 56.54C16.326 56.54 18.798 55.784 20.754 54.272C22.722 52.76 24.09 50.726 24.858 48.17L21.042 47.144C20.526 48.956 19.626 50.378 18.342 51.41C17.058 52.442 15.39 52.958 13.338 52.958C11.502 52.958 9.966 52.544 8.73 51.716C7.506 50.888 6.582 49.73 5.958 48.242C5.346 46.754 5.046 45.02 5.058 43.04C5.07 41.06 5.382 39.326 5.994 37.838C6.606 36.35 7.524 35.192 8.748 34.364C9.972 33.536 11.502 33.122 13.338 33.122C15.39 33.122 17.058 33.638 18.342 34.67C19.626 35.702 20.526 37.124 21.042 38.936L24.858 37.91C24.09 35.354 22.722 33.32 20.754 31.808C18.798 30.296 16.326 29.54 13.338 29.54C10.746 29.54 8.538 30.11 6.714 31.25C4.89 32.39 3.492 33.974 2.52 36.002C1.56 38.018 1.08 40.364 1.08 43.04C1.08 45.716 1.56 48.068 2.52 50.096C3.492 52.112 4.89 53.69 6.714 54.83C8.538 55.97 10.746 56.54 13.338 56.54ZM39.0589 56.54C40.9909 56.54 42.6709 56.108 44.0989 55.244C45.5269 54.368 46.6309 53.162 47.4109 51.626C48.2029 50.078 48.5989 48.29 48.5989 46.262C48.5989 44.258 48.2089 42.488 47.4289 40.952C46.6489 39.404 45.5449 38.198 44.1169 37.334C42.6889 36.458 41.0029 36.02 39.0589 36.02C37.1509 36.02 35.4829 36.452 34.0549 37.316C32.6269 38.18 31.5169 39.38 30.7249 40.916C29.9329 42.452 29.5369 44.234 29.5369 46.262C29.5369 48.266 29.9269 50.042 30.7069 51.59C31.4869 53.138 32.5849 54.35 34.0009 55.226C35.4289 56.102 37.1149 56.54 39.0589 56.54ZM39.0589 52.994C37.2469 52.994 35.8729 52.388 34.9369 51.176C34.0009 49.952 33.5329 48.314 33.5329 46.262C33.5329 44.282 33.9829 42.674 34.8829 41.438C35.7829 40.19 37.1749 39.566 39.0589 39.566C40.8949 39.566 42.2749 40.172 43.1989 41.384C44.1349 42.596 44.6029 44.222 44.6029 46.262C44.6029 48.254 44.1409 49.874 43.2169 51.122C42.3049 52.37 40.9189 52.994 39.0589 52.994ZM54.7144 56H58.4764V29.54H54.7144V56ZM66.0417 56H69.8037V29.54H66.0417V56ZM77.3691 33.374H81.1311V29.72H77.3691V33.374ZM77.3691 56H81.1311V36.56H77.3691V56ZM88.3184 56H91.6664V54.218C92.3744 54.95 93.2084 55.52 94.1684 55.928C95.1404 56.336 96.2384 56.54 97.4624 56.54C99.2744 56.54 100.834 56.09 102.142 55.19C103.462 54.278 104.476 53.048 105.184 51.5C105.904 49.952 106.264 48.206 106.264 46.262C106.264 44.306 105.904 42.56 105.184 41.024C104.464 39.476 103.438 38.258 102.106 37.37C100.786 36.47 99.2144 36.02 97.3904 36.02C96.3104 36.02 95.3264 36.182 94.4384 36.506C93.5504 36.83 92.7704 37.292 92.0984 37.892V30.08H88.3184V56ZM96.9404 53.138C95.0924 53.138 93.7484 52.496 92.9084 51.212C92.0804 49.928 91.6664 48.278 91.6664 46.262C91.6664 44.246 92.0804 42.602 92.9084 41.33C93.7364 40.058 95.0384 39.422 96.8144 39.422C98.0624 39.422 99.0884 39.728 99.8924 40.34C100.696 40.952 101.29 41.774 101.674 42.806C102.07 43.838 102.268 44.99 102.268 46.262C102.268 47.546 102.076 48.71 101.692 49.754C101.308 50.786 100.72 51.608 99.9284 52.22C99.1484 52.832 98.1524 53.138 96.9404 53.138ZM112.039 56H115.837V46.19C115.837 45.05 116.017 43.994 116.377 43.022C116.737 42.05 117.373 41.27 118.285 40.682C118.933 40.262 119.647 40.016 120.427 39.944C121.207 39.872 121.909 39.92 122.533 40.088V36.56C121.657 36.392 120.727 36.398 119.743 36.578C118.771 36.758 117.919 37.118 117.187 37.658C116.467 38.138 115.867 38.804 115.387 39.656V36.56H112.039V56ZM128.121 33.374H131.883V29.72H128.121V33.374ZM128.121 56H131.883V36.56H128.121V56Z" fill="black"/>
<path fill-rule="evenodd" clip-rule="evenodd" d="M165.151 2.15729C162.931 4.43299 161.297 6.26546 160.685 7.16421C160.193 7.88691 159.712 8.9 159.21 10.2746C158.959 10.9595 158.539 11.9221 158.275 12.4137C158.005 12.9175 157.679 13.747 157.528 14.3152C156.975 16.4002 155.353 20.1861 154.912 20.4241C154.77 20.5008 154.172 20.409 152.721 20.0873C150.369 19.5658 149.375 19.5089 148.71 19.8578C148.045 20.2062 147.415 20.8086 146.792 21.6923C146.477 22.1395 146.134 22.6102 146.031 22.7381C145.928 22.8661 144.171 23.8824 142.128 24.9966C137.352 27.6008 136.962 27.8183 137.002 27.8587C137.021 27.8772 139.086 27.1456 141.592 26.2329C144.296 25.2482 146.237 24.596 146.367 24.6285C146.488 24.6585 147.136 24.8788 147.807 25.1178C148.479 25.3569 149.168 25.5527 149.34 25.5531C150.043 25.5546 151.143 26.3505 152.265 27.6696C153.076 28.6236 154.266 29.4388 156.396 30.5011C157.903 31.2528 157.938 31.2639 158.784 31.2699C159.257 31.2732 159.781 31.2375 159.948 31.1905L160.252 31.1051L159.828 31.8858C159.297 32.8608 158.787 33.8069 158.458 34.4261C158.318 34.6881 158.232 34.9754 158.266 35.0646C158.3 35.1538 158.293 35.192 158.251 35.1495C158.209 35.1069 158.066 35.2547 157.935 35.4778C157.761 35.7711 157.674 36.1369 157.621 36.8004C157.579 37.312 157.589 37.7434 157.641 37.7762C157.693 37.8085 157.938 37.696 158.185 37.5261C158.688 37.1808 158.731 37.257 158.42 37.9455C158.141 38.5657 158.155 38.9388 158.471 39.282C158.903 39.7514 159.069 39.6296 159.32 38.6602C159.493 37.9895 159.549 37.8829 159.665 37.9997C159.705 38.0408 159.676 38.3015 159.599 38.579C159.3 39.6523 159.277 39.9235 159.44 40.432C159.621 40.9979 160.029 41.4418 160.279 41.3452C160.371 41.3095 160.534 41.0748 160.641 40.8237L160.836 40.3671L160.838 40.9126C160.84 41.5702 160.994 41.8929 161.346 41.982C161.902 42.1226 162.451 41.4216 162.462 40.5577L162.466 40.1532L162.772 40.8183C163.105 41.5428 163.582 41.9444 164.049 41.8935C164.27 41.8693 164.325 41.7932 164.379 41.4367C164.415 41.2014 164.45 41.0678 164.459 41.1398C164.467 41.2119 164.615 41.3443 164.787 41.4341L165.101 41.5976L165.174 41.2076C165.248 40.807 165.21 39.9825 164.996 37.3724C164.929 36.5488 164.877 35.8028 164.881 35.7146C164.885 35.6263 164.935 35.0006 164.993 34.3241C165.136 32.6492 165.136 30.3914 164.992 29.7035C164.84 28.9789 163.838 26.4934 163.269 25.4301L162.83 24.6113L163.042 24.3743C163.158 24.244 163.528 23.9488 163.863 23.7183C164.723 23.1288 164.84 22.9099 164.843 21.8901C164.845 20.9609 164.807 21.0248 165.866 20.1901C166.186 19.9375 166.211 19.8828 166.093 19.6835C165.908 19.3727 165.927 18.9762 166.135 18.8019C166.231 18.7212 166.886 18.3663 167.589 18.0134C168.958 17.3267 169.226 17.0855 168.896 16.8384C168.716 16.7034 168.761 16.6514 169.48 16.1732C170.205 15.6903 170.263 15.6237 170.319 15.2054C170.368 14.8368 170.503 14.6258 171.067 14.0316C171.817 13.2424 173.019 11.7599 174.234 10.1251C174.848 9.29841 175.144 9.00096 175.66 8.69143C176.595 8.12959 177 7.81023 177 7.63321C177 7.42005 176.798 7.43866 176.191 7.70755C175.341 8.08392 174.605 8.60758 174.357 9.01123C174.207 9.25573 173.683 9.68687 172.882 10.2242C172.198 10.6827 170.875 11.6556 169.941 12.3861C169.007 13.1167 168.181 13.7621 168.107 13.8203C167.848 14.023 167.851 13.7985 168.114 13.218C168.465 12.4467 168.539 12.0682 168.408 11.7216C168.321 11.489 168.331 11.4356 168.463 11.4356C168.717 11.4356 168.938 10.7485 169.008 9.74014C169.054 9.07808 169.13 8.7371 169.273 8.54052C169.512 8.21377 169.616 7.29823 169.491 6.62259C169.414 6.20525 169.436 6.09155 169.654 5.76694C169.861 5.45998 169.895 5.30735 169.844 4.91921C169.809 4.65888 169.688 4.28774 169.575 4.09447C169.432 3.85062 169.387 3.63146 169.428 3.37873C169.491 2.98385 169.218 2.25911 168.969 2.16296C168.881 2.12873 168.85 2.01622 168.888 1.86402C168.996 1.43042 168.223 1.08174 167.878 1.40849C167.762 1.51812 167.748 1.49417 167.799 1.2748C167.877 0.937033 167.721 0.222141 167.525 0.0254489C167.398 -0.102898 167.059 0.201927 165.151 2.15729ZM161.178 39.4847C161.175 39.5583 161.103 39.7628 161.018 39.9393C160.88 40.2225 160.868 40.2288 160.915 39.9928C160.944 39.8457 160.968 39.6411 160.969 39.5382C160.97 39.4353 161.018 39.3511 161.077 39.3511C161.135 39.3511 161.181 39.4113 161.178 39.4847Z" fill="black"/>
</svg>
